<?xml version="1.0" encoding="UTF-8" standalone="no"?>
<svg width="184px" height="160px" viewBox="0 0 184 160" version="1.1" xmlns="http://www.w3.org/2000/svg" xmlns:xlink="http://www.w3.org/1999/xlink">
    <!-- Generator: Sketch 39.1 (31720) - http://www.bohemiancoding.com/sketch -->
    <title>Shape</title>
    <desc>Created with Sketch.</desc>
    <defs></defs>
    <g id="Page-1" stroke="none" stroke-width="1" fill="none" fill-rule="evenodd">
        <path d="M42.9,6 C62,2.5 77.9,8.7 89.9,25 C92,27.8 92.6,27.8 94.6,25 C110.5,2.7 140.6,-1.5 161.6,15.5 C184,33.8 185.8,69.3 165,89.5 C156.9,97.4 148.2,104.5 139.8,112 C125,125 110.2,137.8 95.4,150.8 C88.9,156.5 89,156.6 82.8,150.5 C63.3,131.6 43.8,112.5 24.1,93.8 C16.8,86.9 10.8,79.5 7.5,69.7 C5.8,64.6 5.3,59.3 5,55 C5.1,30.5 20.9,10 42.9,6 L42.9,6 Z" id="Shape" stroke="#EFEFEF" stroke-width="9"></path>
    </g>
</svg>