<?xml version="1.0" encoding="UTF-8" standalone="no"?>
<svg width="184px" height="160px" viewBox="0 0 184 160" version="1.1" xmlns="http://www.w3.org/2000/svg" xmlns:xlink="http://www.w3.org/1999/xlink">
    <!-- Generator: Sketch 39.1 (31720) - http://www.bohemiancoding.com/sketch -->
    <title>like</title>
    <desc>Created with Sketch.</desc>
    <defs></defs>
    <g id="Page-1" stroke="none" stroke-width="1" fill="none" fill-rule="evenodd">
        <g id="like" transform="translate(5.000000, 5.000000)" stroke-width="9" stroke="#FF5252" fill="#FF5252">
            <g id="Page-1">
                <path d="M37.9,1 C57,-2.5 72.9,3.7 84.9,20 C87,22.8 87.6,22.8 89.6,20 C105.5,-2.3 135.6,-6.5 156.6,10.5 C179,28.8 180.8,64.3 160,84.5 C151.9,92.4 143.2,99.5 134.8,107 C120,120 105.2,132.8 90.4,145.8 C83.9,151.5 84,151.6 77.8,145.5 C58.3,126.6 38.8,107.5 19.1,88.8 C11.8,81.9 5.8,74.5 2.5,64.7 C0.8,59.6 0.3,54.3 0,50 C0.1,25.5 15.9,5 37.9,1 L37.9,1 L37.9,1 Z" id="Shape"></path>
            </g>
        </g>
    </g>
</svg>